<svg width="144" height="135" viewBox="0 0 144 135" fill="none" xmlns="http://www.w3.org/2000/svg">
<path d="M10.4668 125.371C10.4668 124.551 10.4668 123.957 10.4668 123.363C10.4668 106.001 10.4668 88.6663 10.4385 71.3037C10.4385 70.0877 10.8061 69.3525 11.7959 68.6455C30.6007 54.9873 49.349 41.3007 68.1256 27.6142C68.8891 27.0769 69.4547 26.7941 70.3596 27.4445C79.8044 34.3726 89.2775 41.2442 98.7224 48.1723C98.8355 48.2571 98.9203 48.3702 98.9203 48.3985C97.5347 49.36 95.8946 50.0952 94.8483 51.3394C93.7737 52.6119 93.3213 54.3652 92.5295 56.0618C92.275 55.8922 91.766 55.5811 91.2853 55.2418C85.2338 50.8587 79.1823 46.4756 73.1308 42.0642C70.1616 39.9151 68.5498 39.9434 65.6089 42.0642C51.5547 52.2443 37.5288 62.4527 23.4464 72.5762C21.3821 74.0466 20.4489 75.8281 20.4489 78.3732C20.5055 93.3888 20.4772 108.376 20.4772 123.392C20.4772 123.986 20.4772 124.579 20.4772 125.399C23.107 125.399 25.5955 125.399 28.084 125.399C30.9118 125.399 30.9118 125.399 30.9118 122.572C30.9118 112.985 30.8835 103.371 30.9118 93.7847C30.94 86.4889 35.408 80.692 41.8836 79.4477C50.1691 77.8642 57.6062 84.0005 57.691 92.6253C57.8041 103.173 57.7193 113.692 57.7476 124.24C57.7476 124.551 57.7476 124.89 57.7476 125.315C77.9098 125.315 98.0154 125.315 118.262 125.315C118.291 124.721 118.347 124.183 118.347 123.618C118.347 118.245 118.376 112.901 118.319 107.528C118.319 106.425 118.602 105.972 119.789 105.888C122.561 105.718 125.304 105.35 128.273 105.068C128.273 111.883 128.273 118.528 128.273 125.399C129.63 125.399 130.79 125.428 131.949 125.399C132.854 125.371 133.222 125.682 133.193 126.615C133.137 128.595 133.108 130.574 133.193 132.554C133.25 133.741 132.797 134.052 131.666 134.052C123.946 134.024 116.226 134.024 108.535 134.024C74.9971 134.024 41.4595 134.024 7.92177 134.024C7.55416 134.024 7.15827 133.996 6.79065 134.024C5.97059 134.109 5.5747 133.77 5.60298 132.921C5.63125 130.801 5.63125 128.68 5.60298 126.559C5.60298 125.71 5.91403 125.371 6.76237 125.399C7.89349 125.399 9.08117 125.371 10.4668 125.371Z" fill="#1E4164"/>
<path d="M38.7172 21.3082C39.9897 20.4315 40.9512 19.7811 41.8561 19.0742C48.9821 13.6165 56.1082 8.13061 63.206 2.64469C67.6739 -0.805227 71.1238 -0.918339 75.5917 2.53157C95.1601 17.5189 114.672 32.5345 134.212 47.5501C134.41 47.6915 134.58 47.8329 134.749 48.0026C137.775 50.5476 138.567 53.0926 137.238 56.0335C135.909 58.9744 132.43 60.6711 129.009 60.1621C126.945 59.851 125.22 58.8896 123.579 57.6171C107.037 44.8354 90.4377 32.0821 73.8668 19.3004C69.7099 16.105 69.4837 16.0767 65.2703 19.3004C48.9256 31.8276 32.5809 44.3547 16.2362 56.8818C14.172 58.4654 12.1359 60.0207 9.44953 60.4449C4.75539 61.1518 0.428856 57.504 0.853026 53.1209C1.05097 51.0566 2.18209 49.5578 3.76566 48.3136C8.40325 44.7223 13.0408 41.0745 17.735 37.5397C19.8275 35.9561 20.8173 34.0615 20.7607 31.4034C20.6759 25.9457 20.8173 20.4881 20.8738 15.0304C20.9021 12.2875 21.9484 11.2129 24.6914 11.1846C28.0282 11.1564 31.365 11.1564 34.7018 11.1846C37.5861 11.2129 38.7172 12.344 38.7172 15.2284C38.7455 17.123 38.7172 18.9894 38.7172 21.3082Z" fill="#1E4164"/>
<path d="M74.1505 105.972C68.5515 106.057 65.2712 102.834 64.9319 97.7152C64.5643 92.5686 63.9987 87.422 63.4332 82.2754C62.8676 77.2985 65.5823 73.5093 70.5592 72.8871C75.3948 72.2933 80.2869 71.9823 85.1507 71.5015C94.1431 70.6249 103.107 69.72 112.1 68.8151C118.915 68.1364 125.758 67.3729 132.573 66.7508C137.38 66.3267 141.169 69.918 141.537 74.6969C141.905 79.9001 142.47 85.1032 143.092 90.2781C143.686 95.3964 141.141 99.1008 136.023 99.7512C129.83 100.543 123.58 101.052 117.359 101.702C107.349 102.72 97.3385 103.71 87.3281 104.7C82.7753 105.152 78.2508 105.576 74.1505 105.972ZM134.241 74.1597C129.802 74.6121 125.419 75.008 121.035 75.517C120.781 75.5453 120.385 76.2522 120.413 76.5916C120.922 82.5299 121.544 88.4683 122.053 94.4067C122.167 95.5661 122.676 95.9054 123.778 95.764C127.087 95.3964 130.424 95.1419 133.732 94.7743C136.701 94.435 136.645 94.4067 136.39 91.4375C136.306 90.4761 135.91 90.2781 135.033 90.3629C133.167 90.5892 131.3 90.7588 129.434 90.9002C125.701 91.183 126.493 91.4658 126.097 88.129C125.984 87.0827 126.408 86.8282 127.313 86.7716C128.897 86.6585 130.509 86.5454 132.092 86.3475C135.061 85.9799 135.09 85.895 134.552 82.8976C134.411 82.0492 134.043 81.823 133.223 81.9078C131.215 82.1341 129.208 82.2472 127.2 82.5017C125.899 82.6713 125.475 82.1906 125.334 80.9464C125.221 79.7304 125.588 79.2214 126.804 79.1649C128.218 79.1083 129.604 78.9104 131.018 78.8255C135.061 78.571 135.174 78.4579 134.241 74.1597ZM78.7033 100.515C80.0323 100.232 81.3897 100.062 82.6622 99.6381C84.783 98.9312 86.0556 97.3759 86.5363 95.1702C87.3281 91.6355 85.5748 88.4683 82.0966 87.4786C80.2868 86.9696 78.4205 86.6868 76.639 86.1778C76.2148 86.0647 75.7341 85.4426 75.6775 85.0184C75.6493 84.6791 76.1583 84.1418 76.5824 83.9438C78.3074 83.0389 79.8627 83.6328 80.7959 85.3012C80.9938 85.6405 81.6725 85.9799 82.0684 85.895C83.1712 85.7254 84.2458 85.3295 85.2921 84.9901C85.3769 84.9619 85.3203 84.4528 85.2638 84.1983C84.8679 81.8795 83.0864 80.0132 80.7676 79.4759C78.7881 79.0235 76.8369 79.2214 74.9423 79.9284C71.9448 81.0595 70.4744 84.057 71.4076 87.1393C72.0297 89.2036 73.4719 90.5043 75.4796 91.0699C77.2046 91.5506 78.9861 91.7768 80.6827 92.2858C81.22 92.4272 81.9553 93.0776 81.9835 93.5018C82.0118 94.1239 81.6442 95.0005 81.1352 95.3964C79.4951 96.7255 76.9218 96.1599 76.1865 94.1805C75.6493 92.71 74.8858 92.5969 73.6415 92.9928C73.1891 93.1342 72.7366 93.219 72.2559 93.2756C71.4076 93.3604 71.1813 93.7563 71.3793 94.6046C72.2842 98.3091 74.8009 100.345 78.7033 100.515ZM87.1301 99.1291C87.8654 99.1291 88.3461 99.1574 88.7985 99.1291C91.9091 98.8746 91.9939 98.8746 92.5878 95.7923C92.8423 94.5198 93.4078 93.9825 94.6521 94.0956C94.8783 94.1239 95.1328 94.0674 95.359 94.0674C96.575 93.9825 98.0171 93.4735 98.9503 93.9542C99.8552 94.4067 100.166 95.9337 100.817 96.9234C101.071 97.3193 101.637 97.7718 102.033 97.7718C103.333 97.7718 104.634 97.5738 106.105 97.4324C105.822 96.782 105.652 96.3013 105.454 95.8489C103.022 90.7588 100.59 85.6688 98.1585 80.5788C96.8012 77.7227 96.8012 77.751 93.6058 78.0055C92.6726 78.0903 92.2202 78.4579 91.9939 79.3911C90.7497 84.5094 89.4489 89.5994 88.1764 94.6895C87.8653 96.1034 87.526 97.5173 87.1301 99.1291ZM109.555 76.7612C108.395 76.8461 107.462 76.9592 106.529 76.9592C105.285 76.9875 104.974 77.553 105.087 78.7407C105.68 84.4246 106.246 90.1367 106.755 95.8489C106.84 96.9234 107.236 97.3476 108.339 97.2345C111.336 96.9234 114.334 96.6407 117.303 96.3579C120.922 96.0185 120.357 96.3013 120.074 93.0494C119.989 91.89 119.424 91.8051 118.519 91.89C116.426 92.1162 114.305 92.2858 112.213 92.5403C111.336 92.6535 111.025 92.3424 110.968 91.4941C110.799 89.3449 110.601 87.1958 110.375 85.0467C110.148 82.332 109.866 79.6456 109.555 76.7612Z" fill="#7DCBC1"/>
<path d="M67.1375 71.0209C64.1401 71.0209 61.1143 71.0209 57.9189 71.0209C57.9189 69.4091 57.9189 67.9104 57.9189 66.4116C57.9189 62.8486 57.9472 59.2573 57.8906 55.6943C57.8906 54.6763 58.1734 54.2521 59.248 54.2804C61.5385 54.3369 63.8573 54.3087 66.1478 54.3087C66.8265 54.3087 67.3355 54.4218 67.3355 55.2984C67.3072 60.3601 67.3072 65.4502 67.3072 70.5119C67.2789 70.6533 67.1941 70.7947 67.1375 71.0209Z" fill="#1E4164"/>
<path d="M72.0573 71.134C72.0573 70.1443 72.0573 69.607 72.0573 69.0415C72.0573 64.6584 72.0856 60.3036 72.0291 55.9205C72.0008 54.7328 72.3118 54.2238 73.5844 54.2804C75.7335 54.3652 77.9109 54.3369 80.06 54.2804C81.1346 54.2521 81.587 54.5631 81.5587 55.6942C81.5022 58.1827 81.5587 60.6712 81.5022 63.1596C81.5022 63.6686 81.3042 64.3756 80.9366 64.6301C78.1654 66.7792 75.3093 68.8152 72.0573 71.134Z" fill="#1E4164"/>
<path d="M107.658 56.7688C113.681 59.4835 119.393 62.0568 125.105 64.6301C125.077 64.7432 125.077 64.8846 125.049 64.9977C122.362 65.2239 119.676 65.4784 116.99 65.6764C116.65 65.7046 116.254 65.5067 115.915 65.3653C113.002 64.0645 110.118 62.7072 107.177 61.4064C106.3 61.0105 106.046 60.5863 106.47 59.6814C106.923 58.8048 107.234 57.8434 107.658 56.7688Z" fill="#7DCBC1"/>
<path d="M93.7193 58.2957C94.4263 59.3702 95.0484 60.2751 95.614 61.18C95.7553 61.4062 95.8685 61.6607 96.0664 62.0566C93.8607 63.6402 91.655 65.1389 89.5342 66.7508C87.6961 68.1364 85.8015 69.1827 83.3696 69.1544C81.786 69.1261 80.2025 69.4089 78.6189 69.5503C78.5623 69.4372 78.5058 69.3241 78.4492 69.211C83.511 65.6196 88.5445 62.0001 93.7193 58.2957Z" fill="#7DCBC1"/>
<path d="M100.56 61.3781C97.478 61.3781 95.1875 59.1159 95.1875 56.0619C95.1875 53.0361 97.5063 50.7456 100.56 50.7456C103.53 50.7456 105.877 53.0644 105.905 56.0053C105.933 59.0593 103.614 61.3781 100.56 61.3781ZM100.56 58.8897C102.2 58.8897 103.388 57.6737 103.36 56.0619C103.332 54.4783 102.059 53.2341 100.475 53.2341C98.8919 53.2341 97.676 54.5066 97.676 56.1184C97.7042 57.7303 98.8919 58.8897 100.56 58.8897Z" fill="#7DCBC1"/>
<path d="M97.3924 89.4864C96.1765 89.5995 95.2433 89.6843 94.0273 89.7974C94.395 88.1007 94.7343 86.6303 95.0736 85.1316C95.1867 85.1316 95.2999 85.1033 95.413 85.1033C96.0351 86.4889 96.6572 87.8745 97.3924 89.4864Z" fill="#7DCBC1"/>
</svg>
